<svg id="visual" viewBox="0 0 1200 200" width="1200" height="200" xmlns="http://www.w3.org/2000/svg" xmlns:xlink="http://www.w3.org/1999/xlink" version="1.1"><rect x="0" y="0" width="1200" height="200" fill="#fff"></rect><path d="M0 99L33.3 98.2C66.7 97.3 133.3 95.7 200 97.8C266.7 100 333.3 106 400 108C466.7 110 533.3 108 600 103C666.7 98 733.3 90 800 93.3C866.7 96.7 933.3 111.3 1000 115.7C1066.7 120 1133.3 114 1166.7 111L1200 108L1200 201L1166.7 201C1133.3 201 1066.7 201 1000 201C933.3 201 866.7 201 800 201C733.3 201 666.7 201 600 201C533.3 201 466.7 201 400 201C333.3 201 266.7 201 200 201C133.3 201 66.7 201 33.3 201L0 201Z" fill="#35d2a3"></path><path d="M0 137L33.3 137.5C66.7 138 133.3 139 200 138.8C266.7 138.7 333.3 137.3 400 131.5C466.7 125.7 533.3 115.3 600 113.5C666.7 111.7 733.3 118.3 800 121.3C866.7 124.3 933.3 123.7 1000 119.3C1066.7 115 1133.3 107 1166.7 103L1200 99L1200 201L1166.7 201C1133.3 201 1066.7 201 1000 201C933.3 201 866.7 201 800 201C733.3 201 666.7 201 600 201C533.3 201 466.7 201 400 201C333.3 201 266.7 201 200 201C133.3 201 66.7 201 33.3 201L0 201Z" fill="#1ab584"></path><path d="M0 133L33.3 131.3C66.7 129.7 133.3 126.3 200 129.3C266.7 132.3 333.3 141.7 400 145.2C466.7 148.7 533.3 146.3 600 144.8C666.7 143.3 733.3 142.7 800 143.8C866.7 145 933.3 148 1000 145C1066.7 142 1133.3 133 1166.7 128.5L1200 124L1200 201L1166.7 201C1133.3 201 1066.7 201 1000 201C933.3 201 866.7 201 800 201C733.3 201 666.7 201 600 201C533.3 201 466.7 201 400 201C333.3 201 266.7 201 200 201C133.3 201 66.7 201 33.3 201L0 201Z" fill="#00a472"></path><path d="M0 151L33.3 150.2C66.7 149.3 133.3 147.7 200 151.2C266.7 154.7 333.3 163.3 400 165.5C466.7 167.7 533.3 163.3 600 162.3C666.7 161.3 733.3 163.7 800 163.5C866.7 163.3 933.3 160.7 1000 161.2C1066.7 161.7 1133.3 165.3 1166.7 167.2L1200 169L1200 201L1166.7 201C1133.3 201 1066.7 201 1000 201C933.3 201 866.7 201 800 201C733.3 201 666.7 201 600 201C533.3 201 466.7 201 400 201C333.3 201 266.7 201 200 201C133.3 201 66.7 201 33.3 201L0 201Z" fill="#1ab584"></path><path d="M0 183L33.3 183C66.7 183 133.3 183 200 179.7C266.7 176.3 333.3 169.7 400 170.3C466.7 171 533.3 179 600 179.8C666.7 180.7 733.3 174.3 800 172.2C866.7 170 933.3 172 1000 171.8C1066.7 171.7 1133.3 169.3 1166.7 168.2L1200 167L1200 201L1166.7 201C1133.3 201 1066.7 201 1000 201C933.3 201 866.7 201 800 201C733.3 201 666.7 201 600 201C533.3 201 466.7 201 400 201C333.3 201 266.7 201 200 201C133.3 201 66.7 201 33.3 201L0 201Z" fill="#35d2a3"></path></svg>