<svg xmlns="http://www.w3.org/2000/svg" version="1.1" xmlns:xlink="http://www.w3.org/1999/xlink" xmlns:svgjs="http://svgjs.dev/svgjs" width="1000" height="1125" viewBox="0 0 1000 1125"><g transform="matrix(1,0,0,1,1.7053025658242404e-13,0)"><svg viewBox="0 0 320 360" data-background-color="#ffffff" preserveAspectRatio="xMidYMid meet" height="1125" width="1000" xmlns="http://www.w3.org/2000/svg" xmlns:xlink="http://www.w3.org/1999/xlink"><g id="tight-bounds" transform="matrix(1,0,0,1,0,0)"><svg viewBox="0 0 320 360" height="360" width="320"><g><svg></svg></g><g><svg viewBox="0 0 320 360" height="360" width="320"><g><path xmlns="http://www.w3.org/2000/svg" d="M20.961 227.22l3.726 4.658-1.863-6.056c-0.466-2.795-3.726 0.466-1.863 1.398M25.153 224.425c1.397 2.329 2.795 4.658 2.795 6.987 0 3.261 2.795 4.658 5.123 5.589-3.261-3.726-5.124-13.974-7.918-12.576M204.017 26.929c7.918 0 15.371-0.932 23.756 0.931 20.495 5.124 37.729 15.371 49.374 29.811l32.606 52.169c1.397 13.042 4.192 27.482 3.726 43.319 3.261 0 2.795-4.658 6.521-5.59-3.726 9.316-5.59 20.961-6.521 34.469-2.329-7.453 0-18.632 0.466-24.687-3.261 5.124-5.124 1.397-5.124-0.932 0.466-3.726-1.397-3.261-2.795-4.658-5.124-4.658-8.384-9.782-12.11-17.7 2.329-6.055 2.795-14.905-4.658-19.563-2.329-1.397-5.124-3.726-6.521-7.453-1.863-5.124-5.124-11.179-4.193-19.097 0.466-2.329-6.987 5.124-11.179 1.863-18.166-12.576-36.332-27.016-58.224-39.127-11.645 0-20.029-4.192-24.221-9.316-3.726-4.658-0.932-10.713 4.658-11.179 3.261 0 6.987-0.932 9.782 0.932 0.466-1.863 2.329-4.192 4.657-4.192M157.904 16.215l0.932 0.466c4.658 0.932 6.987 7.453 12.11 5.124 0 3.261 0.466 6.521-0.466 8.85-1.397 3.726-5.59 3.726-8.85 3.726-31.208-1.863-49.374 11.179-68.471 22.358-5.124 3.261-10.713 5.59-14.906 9.782-20.029 18.632-41.921 35.866-47.045 70.335l-4.192 38.195c-0.466 4.192-5.124 8.384-4.192 13.508l3.26 22.824c-3.261-3.261-5.124 0.932-4.192 2.795 0.466 1.397 2.329 6.055 5.124 1.863 3.726 6.987 7.453 20.495 12.576 26.55 15.837 18.632 36.332 35.4 53.101 52.169 4.192-0.932 7.453-0.932 8.384-3.727 1.397 2.795-1.397 5.59-3.726 6.056 7.453 4.658 15.837 8.85 27.016 9.781 14.44 0.932 27.948 3.261 40.524 6.522 6.521-1.863 13.042-2.795 20.029-3.261 2.329 0 3.726-3.726 6.521-4.658l0.466-4.658c2.795 4.192 2.329-1.397 0.466-4.192 3.261 2.795 4.192 5.124 5.589 6.987 0-1.397 3.726-6.521 3.727-0.466l0.931-6.055c1.397-0.932 1.863 5.124 3.261 0.931 1.397-4.192 4.192-0.932 6.987-2.329-0.932 1.863-0.466 5.59 2.794 3.261l3.727-3.261c2.329 5.59 6.055 3.261 7.918 2.329 20.495-13.042 40.99-28.413 60.553-43.784l-0.466 6.055 2.329-7.453c2.329 2.329 4.192 0.466 5.124-0.931 2.795-4.658 6.521-9.316 12.577-13.508-7.453 20.029-16.303 35.866-27.482 48.908l-4.658 5.59c0 3.261-0.932 7.453-4.658 7.918-1.863 0.466-5.59-0.932-8.384 1.863-1.397 1.863 3.261 5.59-0.466 2.795-3.261-2.329-6.521 0-10.248 0.932-2.795 0.932 1.863 3.726 2.795 5.589 0.932 1.863 1.863 3.726 1.398 6.056l-5.124-5.59c-6.055 3.261-9.782 9.316-14.906 13.974-2.329 1.863-1.397 5.124-1.397 7.918-3.261 0-6.987-0.932-8.85 0.932-1.397 1.863-0.932 4.658-0.932 7.453-4.658-0.466-5.124-7.453-9.315-6.056-4.192 0.932-8.85 1.397-12.577 3.727 2.795 5.59-4.658 2.329-3.726 3.26-6.987-4.192-13.042-7.453-20.495-4.658-15.837-5.124-35.4-2.795-49.84-0.931 0-2.329 0.466-4.658-0.466-5.124-0.932 2.329-3.726 1.397-3.26 1.397-8.85-6.055-17.7-9.782-27.016-14.905-8.384 0.932-16.303-3.261-18.632-5.59-6.521-6.055-13.974-2.795-20.029-4.192-13.042-3.261-17.7-16.769-19.098-26.084-0.932-4.658-4.658-6.521-6.055-6.056-6.055-19.563-15.371-37.263-22.824-55.429-1.863-4.658-1.397-9.316-1.397-14.44 2.329 0.932 4.658 0.466 4.192-2.794-2.329-15.371-7.918-27.016-13.974-38.195 3.261-15.837 3.726-34.469 11.179-48.443 6.521-12.576 18.632-19.098 27.016-29.811 2.795-3.726 2.795-8.85 5.59-12.11 9.316-9.316 18.632-19.098 28.879-27.482 4.658-3.726 10.247 0 17.234-1.397 2.329-8.384 11.645-15.837 20.495-13.508 3.726 0.932 11.179-8.85 13.508-9.782 3.726-1.397 1.863 3.726 1.863 6.987 8.85-6.987 20.961-10.713 32.14-14.906" fill="#0063db" fill-rule="nonzero" stroke="none" stroke-width="1" stroke-linecap="butt" stroke-linejoin="miter" stroke-miterlimit="10" stroke-dasharray="" stroke-dashoffset="0" font-family="none" font-weight="none" font-size="none" text-anchor="none" style="mix-blend-mode: normal" data-fill-palette-color="tertiary"></path></g><g transform="matrix(1,0,0,1,90.30945866523346,90)"><svg viewBox="0 0 139.38108266953307 180" height="180" width="139.38108266953307"><g><svg viewBox="0 0 139.38108266953307 180" height="180" width="139.38108266953307"><g><svg viewBox="0 0 186.04310400000003 240.26042902391663" height="180" width="139.38108266953307"><g><svg viewBox="0 0 186.04310400000003 240.26042902391663" height="240.26042902391663" width="186.04310400000003"><g id="textblocktransform"><svg viewBox="0 0 186.04310400000003 240.26042902391663" height="240.26042902391663" width="186.04310400000003" id="textblock"><g><svg viewBox="0 0 186.04310400000003 178.88760000000002" height="178.88760000000002" width="186.04310400000003"><g transform="matrix(1,0,0,1,0,0)"><svg width="186.04310400000003" viewBox="2.3299999237060547 -35 36.400001525878906 35" height="178.88760000000002" data-palette-color="#0063db"><path d="M8.03 0L2.33 0 7.08-35 11.65-35 20.55-18.25 29.4-35 34-35 38.73 0 33.02 0 29.58-27.6 31.03-27.33 20.6-7.9 10.03-27.3 11.48-27.58 8.03 0Z" opacity="1" transform="matrix(1,0,0,1,0,0)" fill="#0063db" class="wordmark-text-0" data-fill-palette-color="primary" id="text-0"></path></svg></g></svg></g><g transform="matrix(1,0,0,1,0,204.99159414240003)"><svg viewBox="0 0 186.04310400000003 35.2688348815166" height="35.2688348815166" width="186.04310400000003"><g transform="matrix(1,0,0,1,0,0)"><svg width="186.04310400000003" viewBox="0.6000000238418579 -35.5 189.88999938964844 36" height="35.2688348815166" data-palette-color="#0063db"><path d="M6.9 0L1.65 0Q1.2 0 0.9-0.33 0.6-0.65 0.6-1.05L0.6-1.05Q0.6-1.3 0.65-1.5L0.65-1.5 12.55-33.65Q12.7-34.2 13.15-34.6 13.6-35 14.4-35L14.4-35 20.8-35Q21.6-35 22.05-34.6 22.5-34.2 22.7-33.65L22.7-33.65 34.55-1.5Q34.65-1.3 34.65-1.05L34.65-1.05Q34.65-0.65 34.33-0.33 34 0 33.55 0L33.55 0 28.3 0Q27.6 0 27.25-0.35 26.9-0.7 26.8-1L26.8-1 24.65-6.6 10.55-6.6 8.45-1Q8.3-0.7 7.98-0.35 7.65 0 6.9 0L6.9 0ZM17.6-27.4L12.45-13.05 22.75-13.05 17.6-27.4ZM44.6 0L39.6 0Q39.05 0 38.7-0.35 38.35-0.7 38.35-1.25L38.35-1.25 38.35-34.25Q38.35-34.8 38.7-35.15 39.05-35.5 39.6-35.5L39.6-35.5 44.6-35.5Q45.15-35.5 45.5-35.15 45.85-34.8 45.85-34.25L45.85-34.25 45.85-1.25Q45.85-0.7 45.5-0.35 45.15 0 44.6 0L44.6 0ZM67.3 0.5L67.3 0.5Q64.45 0.5 62.52-0.48 60.6-1.45 59.4-2.95L59.4-2.95 59.4-1.25Q59.4-0.7 59.05-0.35 58.7 0 58.15 0L58.15 0 53.4 0Q52.85 0 52.5-0.35 52.15-0.7 52.15-1.25L52.15-1.25 52.15-34.25Q52.15-34.8 52.5-35.15 52.85-35.5 53.4-35.5L53.4-35.5 58.55-35.5Q59.1-35.5 59.45-35.15 59.8-34.8 59.8-34.25L59.8-34.25 59.8-23.4Q61-24.75 62.85-25.63 64.7-26.5 67.3-26.5L67.3-26.5Q69.84-26.5 71.77-25.63 73.7-24.75 75.05-23.18 76.4-21.6 77.12-19.45 77.84-17.3 77.95-14.7L77.95-14.7Q78-13.8 78-13.03 78-12.25 77.95-11.3L77.95-11.3Q77.84-8.65 77.09-6.48 76.34-4.3 75.02-2.73 73.7-1.15 71.77-0.33 69.84 0.5 67.3 0.5ZM65-5.5L65-5.5Q66.9-5.5 68-6.33 69.09-7.15 69.57-8.5 70.05-9.85 70.15-11.45L70.15-11.45Q70.25-13 70.15-14.55L70.15-14.55Q70.05-16.15 69.57-17.5 69.09-18.85 68-19.68 66.9-20.5 65-20.5L65-20.5Q63.25-20.5 62.1-19.7 60.95-18.9 60.4-17.68 59.85-16.45 59.8-15.05L59.8-15.05Q59.75-14.15 59.75-13.2 59.75-12.25 59.8-11.3L59.8-11.3Q59.85-9.8 60.37-8.5 60.9-7.2 62.02-6.35 63.15-5.5 65-5.5ZM89.74 0L84.44 0Q83.94 0 83.57-0.35 83.19-0.7 83.19-1.25L83.19-1.25 83.19-24.75Q83.19-25.25 83.57-25.63 83.94-26 84.44-26L84.44-26 89.34-26Q89.89-26 90.24-25.63 90.59-25.25 90.59-24.75L90.59-24.75 90.59-22.75Q91.84-24.3 93.69-25.15 95.54-26 97.89-26L97.89-26 100.04-26Q100.59-26 100.94-25.65 101.29-25.3 101.29-24.75L101.29-24.75 101.29-20.4Q101.29-19.9 100.94-19.55 100.59-19.2 100.04-19.2L100.04-19.2 95.69-19.2Q93.44-19.2 92.22-17.95 90.99-16.7 90.99-14.5L90.99-14.5 90.99-1.25Q90.99-0.7 90.62-0.35 90.24 0 89.74 0L89.74 0ZM112.69 0.5L112.69 0.5Q110.04 0.5 107.94-0.53 105.84-1.55 104.59-3.3 103.34-5.05 103.34-7.2L103.34-7.2Q103.34-10.75 106.22-12.8 109.09-14.85 113.79-15.6L113.79-15.6 120.34-16.55 120.34-17.45Q120.34-19.4 119.44-20.45 118.54-21.5 116.29-21.5L116.29-21.5Q114.64-21.5 113.67-20.85 112.69-20.2 112.14-19.15L112.14-19.15Q111.74-18.5 110.94-18.5L110.94-18.5 106.19-18.5Q105.64-18.5 105.34-18.82 105.04-19.15 105.09-19.6L105.09-19.6Q105.09-20.45 105.74-21.6 106.39-22.75 107.74-23.88 109.09-25 111.22-25.75 113.34-26.5 116.34-26.5L116.34-26.5Q119.49-26.5 121.74-25.75 123.99-25 125.37-23.65 126.74-22.3 127.37-20.53 127.99-18.75 127.99-16.7L127.99-16.7 127.99-1.25Q127.99-0.7 127.64-0.35 127.29 0 126.79 0L126.79 0 121.84 0Q121.34 0 120.99-0.35 120.64-0.7 120.64-1.25L120.64-1.25 120.64-3.1Q119.99-2.15 118.89-1.33 117.79-0.5 116.27 0 114.74 0.5 112.69 0.5ZM114.69-4.7L114.69-4.7Q116.34-4.7 117.64-5.4 118.94-6.1 119.69-7.55 120.44-9 120.44-11.2L120.44-11.2 120.44-12.05 115.79-11.3Q113.14-10.85 111.89-9.95 110.64-9.05 110.64-7.75L110.64-7.75Q110.64-6.8 111.22-6.13 111.79-5.45 112.72-5.08 113.64-4.7 114.69-4.7ZM140.54 0L135.24 0Q134.74 0 134.36-0.35 133.99-0.7 133.99-1.25L133.99-1.25 133.99-24.75Q133.99-25.3 134.36-25.65 134.74-26 135.24-26L135.24-26 140.14-26Q140.69-26 141.04-25.65 141.39-25.3 141.39-24.75L141.39-24.75 141.39-22.8Q142.69-24.4 144.76-25.45 146.84-26.5 149.74-26.5L149.74-26.5Q152.69-26.5 154.94-25.18 157.19-23.85 158.44-21.33 159.69-18.8 159.69-15.2L159.69-15.2 159.69-1.25Q159.69-0.7 159.34-0.35 158.99 0 158.44 0L158.44 0 153.14 0Q152.59 0 152.24-0.35 151.89-0.7 151.89-1.25L151.89-1.25 151.89-14.9Q151.89-17.55 150.61-19.03 149.34-20.5 146.89-20.5L146.89-20.5Q144.54-20.5 143.16-19.03 141.79-17.55 141.79-14.9L141.79-14.9 141.79-1.25Q141.79-0.7 141.44-0.35 141.09 0 140.54 0L140.54 0ZM175.34 0.5L175.34 0.5Q172.84 0.5 170.88-0.33 168.94-1.15 167.59-2.73 166.23-4.3 165.53-6.48 164.84-8.65 164.69-11.3L164.69-11.3Q164.63-12.25 164.63-13.03 164.63-13.8 164.69-14.7L164.69-14.7Q164.78-17.3 165.51-19.45 166.23-21.6 167.56-23.18 168.88-24.75 170.86-25.63 172.84-26.5 175.34-26.5L175.34-26.5Q177.94-26.5 179.78-25.63 181.63-24.75 182.84-23.4L182.84-23.4 182.84-34.25Q182.84-34.8 183.19-35.15 183.53-35.5 184.09-35.5L184.09-35.5 189.24-35.5Q189.78-35.5 190.13-35.15 190.49-34.8 190.49-34.25L190.49-34.25 190.49-1.25Q190.49-0.7 190.13-0.35 189.78 0 189.24 0L189.24 0 184.44 0Q183.94 0 183.59-0.35 183.24-0.7 183.24-1.25L183.24-1.25 183.24-2.95Q181.99-1.45 180.09-0.48 178.19 0.5 175.34 0.5ZM177.63-5.5L177.63-5.5Q179.48-5.5 180.61-6.35 181.74-7.2 182.26-8.5 182.78-9.8 182.84-11.3L182.84-11.3Q182.94-12.25 182.94-13.2 182.94-14.15 182.84-15.05L182.84-15.05Q182.78-16.45 182.21-17.68 181.63-18.9 180.53-19.7 179.44-20.5 177.63-20.5L177.63-20.5Q175.73-20.5 174.63-19.68 173.53-18.85 173.06-17.5 172.59-16.15 172.48-14.55L172.48-14.55Q172.38-13 172.48-11.45L172.48-11.45Q172.59-9.85 173.06-8.5 173.53-7.15 174.63-6.33 175.73-5.5 177.63-5.5Z" opacity="1" transform="matrix(1,0,0,1,0,0)" fill="#0063db" class="slogan-text-1" data-fill-palette-color="secondary" id="text-1"></path></svg></g></svg></g></svg></g></svg></g><g></g></svg></g></svg></g></svg></g></svg></g><defs></defs></svg><rect width="320" height="360" fill="none" stroke="none" visibility="hidden"></rect></g></svg></g></svg>