<svg id="visual" viewBox="0 0 2000 200" width="2000" height="200" xmlns="http://www.w3.org/2000/svg" xmlns:xlink="http://www.w3.org/1999/xlink" version="1.1"><rect x="0" y="0" width="2000" height="200" fill="#fff"></rect><path d="M0 106L47.7 110.3C95.3 114.7 190.7 123.3 285.8 128.8C381 134.3 476 136.7 571.2 123.8C666.3 111 761.7 83 857 70.3C952.3 57.7 1047.7 60.3 1143 73.8C1238.3 87.3 1333.7 111.7 1428.8 118C1524 124.3 1619 112.7 1714.2 103.7C1809.3 94.7 1904.7 88.3 1952.3 85.2L2000 82L2000 0L1952.3 0C1904.7 0 1809.3 0 1714.2 0C1619 0 1524 0 1428.8 0C1333.7 0 1238.3 0 1143 0C1047.7 0 952.3 0 857 0C761.7 0 666.3 0 571.2 0C476 0 381 0 285.8 0C190.7 0 95.3 0 47.7 0L0 0Z" fill="#35D2A3" stroke-linecap="round" stroke-linejoin="miter"></path></svg>