<svg id="visual" viewBox="0 0 1200 200" width="1200" height="200" xmlns="http://www.w3.org/2000/svg" xmlns:xlink="http://www.w3.org/1999/xlink" version="1.1"><rect x="0" y="0" width="1200" height="200" fill="#fff"></rect><path d="M0 114L33.3 114.8C66.7 115.7 133.3 117.3 200 114.8C266.7 112.3 333.3 105.7 400 103.3C466.7 101 533.3 103 600 108.5C666.7 114 733.3 123 800 119.3C866.7 115.7 933.3 99.3 1000 94.5C1066.7 89.7 1133.3 96.3 1166.7 99.7L1200 103L1200 0L1166.7 0C1133.3 0 1066.7 0 1000 0C933.3 0 866.7 0 800 0C733.3 0 666.7 0 600 0C533.3 0 466.7 0 400 0C333.3 0 266.7 0 200 0C133.3 0 66.7 0 33.3 0L0 0Z" fill="#00a472"></path><path d="M0 70L33.3 69.5C66.7 69 133.3 68 200 68.3C266.7 68.7 333.3 70.3 400 77C466.7 83.7 533.3 95.3 600 97.2C666.7 99 733.3 91 800 87.5C866.7 84 933.3 85 1000 90.2C1066.7 95.3 1133.3 104.7 1166.7 109.3L1200 114L1200 0L1166.7 0C1133.3 0 1066.7 0 1000 0C933.3 0 866.7 0 800 0C733.3 0 666.7 0 600 0C533.3 0 466.7 0 400 0C333.3 0 266.7 0 200 0C133.3 0 66.7 0 33.3 0L0 0Z" fill="#13af7e"></path><path d="M0 75L33.3 76.8C66.7 78.7 133.3 82.3 200 78.8C266.7 75.3 333.3 64.7 400 60.7C466.7 56.7 533.3 59.3 600 61.2C666.7 63 733.3 64 800 62.7C866.7 61.3 933.3 57.7 1000 61C1066.7 64.3 1133.3 74.7 1166.7 79.8L1200 85L1200 0L1166.7 0C1133.3 0 1066.7 0 1000 0C933.3 0 866.7 0 800 0C733.3 0 666.7 0 600 0C533.3 0 466.7 0 400 0C333.3 0 266.7 0 200 0C133.3 0 66.7 0 33.3 0L0 0Z" fill="#20bb8a"></path><path d="M0 53L33.3 54.2C66.7 55.3 133.3 57.7 200 53.8C266.7 50 333.3 40 400 37.5C466.7 35 533.3 40 600 41C666.7 42 733.3 39 800 39.2C866.7 39.3 933.3 42.7 1000 42.2C1066.7 41.7 1133.3 37.3 1166.7 35.2L1200 33L1200 0L1166.7 0C1133.3 0 1066.7 0 1000 0C933.3 0 866.7 0 800 0C733.3 0 666.7 0 600 0C533.3 0 466.7 0 400 0C333.3 0 266.7 0 200 0C133.3 0 66.7 0 33.3 0L0 0Z" fill="#2bc696"></path><path d="M0 18L33.3 17.8C66.7 17.7 133.3 17.3 200 21C266.7 24.7 333.3 32.3 400 31.7C466.7 31 533.3 22 600 21C666.7 20 733.3 27 800 29.5C866.7 32 933.3 30 1000 30.2C1066.7 30.3 1133.3 32.7 1166.7 33.8L1200 35L1200 0L1166.7 0C1133.3 0 1066.7 0 1000 0C933.3 0 866.7 0 800 0C733.3 0 666.7 0 600 0C533.3 0 466.7 0 400 0C333.3 0 266.7 0 200 0C133.3 0 66.7 0 33.3 0L0 0Z" fill="#35d2a3"></path></svg>