<svg id="visual" viewBox="0 0 1200 200" width="1200" height="200" xmlns="http://www.w3.org/2000/svg" xmlns:xlink="http://www.w3.org/1999/xlink" version="1.1"><rect x="0" y="0" width="1200" height="200" fill="#fff"></rect><path d="M0 157L40 146.3C80 135.7 160 114.3 240 107.5C320 100.7 400 108.3 480 118.5C560 128.7 640 141.3 720 135.3C800 129.3 880 104.7 960 96C1040 87.3 1120 94.7 1160 98.3L1200 102L1200 201L1160 201C1120 201 1040 201 960 201C880 201 800 201 720 201C640 201 560 201 480 201C400 201 320 201 240 201C160 201 80 201 40 201L0 201Z" fill="#35D2A3" stroke-linecap="round" stroke-linejoin="miter"></path></svg>